<?xml version="1.0" standalone="no"?>
<!DOCTYPE svg PUBLIC "-//W3C//DTD SVG 20010904//EN"
 "http://www.w3.org/TR/2001/REC-SVG-20010904/DTD/svg10.dtd">
<svg version="1.0" xmlns="http://www.w3.org/2000/svg"
 width="90.000000pt" height="90.000000pt" viewBox="0 0 90.000000 90.000000"
 preserveAspectRatio="xMidYMid meet">
<metadata>
Created by potrace 1.14, written by Peter Selinger 2001-2017
</metadata>
<g transform="translate(0.000000,90.000000) scale(0.100000,-0.100000)"
fill="#000000" stroke="none">
<path d="M737 849 c-10 -6 -30 -12 -45 -15 -61 -10 -128 -27 -139 -36 -7 -5
-17 -7 -23 -3 -6 4 -16 2 -23 -3 -7 -6 -28 -12 -47 -15 -54 -9 -103 -23 -128
-36 -12 -6 -28 -11 -35 -9 -17 3 -119 -23 -134 -34 -6 -5 -17 -8 -25 -7 -7 1
-20 -1 -28 -4 -8 -4 -26 -8 -40 -11 -52 -8 -71 -18 -65 -34 7 -18 34 -171 41
-232 3 -25 15 -117 27 -205 22 -159 22 -160 47 -159 28 1 147 15 170 19 8 1
42 6 75 9 33 4 105 13 160 21 90 13 136 19 310 41 28 3 54 9 59 11 7 5 2 107
-9 164 -2 12 -7 47 -11 78 -3 31 -8 65 -10 76 -5 24 -17 161 -18 193 0 22 -3
23 -45 17 -26 -3 -73 -8 -105 -11 -33 -3 -63 -7 -66 -9 -4 -2 -36 -7 -73 -10
-36 -3 -76 -8 -89 -11 -13 -3 -45 -7 -73 -10 -27 -3 -63 -7 -80 -9 -130 -18
-145 -18 -145 -1 0 9 6 17 13 17 6 1 23 3 37 4 34 3 113 25 125 36 6 4 20 8
30 8 11 -1 34 2 50 6 17 4 35 8 40 9 6 1 37 11 70 21 33 11 65 20 70 20 6 1
29 5 52 9 24 4 46 8 50 8 5 -1 15 6 25 14 9 9 22 14 30 13 7 -2 23 1 36 5 18
6 21 12 16 34 -4 15 -9 30 -11 35 -6 10 -45 8 -66 -4z"/>
</g>
</svg>
